<?xml version="1.0" encoding="UTF-8" standalone="no"?>
<svg width="800px" height="500px" viewBox="0 0 800 500" version="1.1" xmlns="http://www.w3.org/2000/svg" xmlns:xlink="http://www.w3.org/1999/xlink" xmlns:sketch="http://www.bohemiancoding.com/sketch/ns">
    <!-- Generator: Sketch 3.0.3 (7892) - http://www.bohemiancoding.com/sketch -->
    <title>Artboard 1</title>
    <desc>Created with Sketch.</desc>
    <defs></defs>
    <g id="Page-1" stroke="none" stroke-width="1" fill="none" fill-rule="evenodd" sketch:type="MSPage">
        <g id="Artboard-1" sketch:type="MSArtboardGroup">
            <g id="Browser" sketch:type="MSLayerGroup" transform="translate(160.000000, 76.000000)">
                <rect id="Base" fill="#EFF1F5" sketch:type="MSShapeGroup" x="171" y="268" width="60" height="51" rx="8"></rect>
                <rect id="Screen" stroke="#2B303B" stroke-width="20" fill="#FFFFFF" sketch:type="MSShapeGroup" x="0.234375" y="0.443286263" width="399.53125" height="280.362508" rx="8"></rect>
                <rect id="Base-3" fill="#DFE1E8" sketch:type="MSShapeGroup" x="120" y="311" width="160" height="10" rx="6"></rect>
                <g id="Line-Graph" transform="translate(39.000000, 40.000000)" sketch:type="MSShapeGroup">
                    <path d="M38.6583592,101.683282 L40.5923591,102.650282 L42.1213203,101.12132 L82.1213203,61.1213203 L78.6583592,61.6832816 L118.658359,81.6832816 L120.592359,82.6502815 L122.12132,81.1213203 L162.12132,41.1213203 L157.87868,36.8786797 L117.87868,76.8786797 L121.341641,76.3167184 L81.3416408,56.3167184 L79.4076409,55.3497185 L77.8786797,56.8786797 L37.8786797,96.8786797 L41.3416408,96.3167184 L1.34164079,76.3167184 L1.34164087,82.0866531 L38.6583592,101.683282 Z" id="Path-2" fill="#5B90BF"></path>
                    <circle id="Oval-1" stroke="#5B90BF" stroke-width="4" fill="#FFFFFF" cx="80" cy="60" r="9"></circle>
                    <circle id="Oval-3" stroke="#5B90BF" stroke-width="4" fill="#FFFFFF" cx="120" cy="80" r="9"></circle>
                    <circle id="Oval-4" stroke="#5B90BF" stroke-width="4" fill="#FFFFFF" cx="160" cy="40" r="9"></circle>
                    <circle id="Oval-2" stroke="#5B90BF" stroke-width="4" fill="#FFFFFF" cx="40" cy="100" r="9"></circle>
                    <path d="M0,0 L0,135 L160,135" id="Path-1" stroke="#DFE1E8" stroke-width="4"></path>
                </g>
                <path d="M41,191 L41,187.132812 L46.8007812,187.132812 L46.8007812,191 L41,191 Z M46.625,191 L46.625,187.132812 L52.4257812,187.132812 L52.4257812,191 L46.625,191 Z M52.25,191 L52.25,187.132812 L58.0507812,187.132812 L58.0507812,191 L52.25,191 Z M57.875,191 L57.875,187.132812 L63.6757812,187.132812 L63.6757812,191 L57.875,191 Z M63.5,191 L63.5,187.132812 L69.3007812,187.132812 L69.3007812,191 L63.5,191 Z M69.125,191 L69.125,187.132812 L74.9257812,187.132812 L74.9257812,191 L69.125,191 Z M74.75,191 L74.75,187.132812 L80.5507812,187.132812 L80.5507812,191 L74.75,191 Z M80.375,191 L80.375,187.132812 L86.1757812,187.132812 L86.1757812,191 L80.375,191 Z M97.2851562,191 L97.2851562,187.132812 L103.085938,187.132812 L103.085938,191 L97.2851562,191 Z M102.910156,191 L102.910156,187.132812 L108.710938,187.132812 L108.710938,191 L102.910156,191 Z M108.535156,191 L108.535156,187.132812 L114.335938,187.132812 L114.335938,191 L108.535156,191 Z M114.160156,191 L114.160156,187.132812 L119.960938,187.132812 L119.960938,191 L114.160156,191 Z M131.070312,191 L131.070312,187.132812 L136.871094,187.132812 L136.871094,191 L131.070312,191 Z M136.695312,191 L136.695312,187.132812 L142.496094,187.132812 L142.496094,191 L136.695312,191 Z M142.320312,191 L142.320312,187.132812 L148.121094,187.132812 L148.121094,191 L142.320312,191 Z M147.945312,191 L147.945312,187.132812 L153.746094,187.132812 L153.746094,191 L147.945312,191 Z M153.570312,191 L153.570312,187.132812 L159.371094,187.132812 L159.371094,191 L153.570312,191 Z M159.195312,191 L159.195312,187.132812 L164.996094,187.132812 L164.996094,191 L159.195312,191 Z M176.105469,191 L176.105469,187.132812 L181.90625,187.132812 L181.90625,191 L176.105469,191 Z M181.730469,191 L181.730469,187.132812 L187.53125,187.132812 L187.53125,191 L181.730469,191 Z M187.355469,191 L187.355469,187.132812 L193.15625,187.132812 L193.15625,191 L187.355469,191 Z M192.980469,191 L192.980469,187.132812 L198.78125,187.132812 L198.78125,191 L192.980469,191 Z M41,201 L41,197.132812 L46.8007812,197.132812 L46.8007812,201 L41,201 Z M46.625,201 L46.625,197.132812 L52.4257812,197.132812 L52.4257812,201 L46.625,201 Z M52.25,201 L52.25,197.132812 L58.0507812,197.132812 L58.0507812,201 L52.25,201 Z M57.875,201 L57.875,197.132812 L63.6757812,197.132812 L63.6757812,201 L57.875,201 Z M63.5,201 L63.5,197.132812 L69.3007812,197.132812 L69.3007812,201 L63.5,201 Z M80.4101562,201 L80.4101562,197.132812 L86.2109375,197.132812 L86.2109375,201 L80.4101562,201 Z M86.0351562,201 L86.0351562,197.132812 L91.8359375,197.132812 L91.8359375,201 L86.0351562,201 Z M102.945312,201 L102.945312,197.132812 L108.746094,197.132812 L108.746094,201 L102.945312,201 Z M108.570312,201 L108.570312,197.132812 L114.371094,197.132812 L114.371094,201 L108.570312,201 Z M114.195312,201 L114.195312,197.132812 L119.996094,197.132812 L119.996094,201 L114.195312,201 Z M131.105469,201 L131.105469,197.132812 L136.90625,197.132812 L136.90625,201 L131.105469,201 Z M136.730469,201 L136.730469,197.132812 L142.53125,197.132812 L142.53125,201 L136.730469,201 Z M142.355469,201 L142.355469,197.132812 L148.15625,197.132812 L148.15625,201 L142.355469,201 Z M147.980469,201 L147.980469,197.132812 L153.78125,197.132812 L153.78125,201 L147.980469,201 Z M153.605469,201 L153.605469,197.132812 L159.40625,197.132812 L159.40625,201 L153.605469,201 Z M159.230469,201 L159.230469,197.132812 L165.03125,197.132812 L165.03125,201 L159.230469,201 Z M164.855469,201 L164.855469,197.132812 L170.65625,197.132812 L170.65625,201 L164.855469,201 Z M41,211 L41,207.132812 L46.8007812,207.132812 L46.8007812,211 L41,211 Z M46.625,211 L46.625,207.132812 L52.4257812,207.132812 L52.4257812,211 L46.625,211 Z M52.25,211 L52.25,207.132812 L58.0507812,207.132812 L58.0507812,211 L52.25,211 Z M57.875,211 L57.875,207.132812 L63.6757812,207.132812 L63.6757812,211 L57.875,211 Z M63.5,211 L63.5,207.132812 L69.3007812,207.132812 L69.3007812,211 L63.5,211 Z M69.125,211 L69.125,207.132812 L74.9257812,207.132812 L74.9257812,211 L69.125,211 Z M74.75,211 L74.75,207.132812 L80.5507812,207.132812 L80.5507812,211 L74.75,211 Z M91.6601562,211 L91.6601562,207.132812 L97.4609375,207.132812 L97.4609375,211 L91.6601562,211 Z M97.2851562,211 L97.2851562,207.132812 L103.085938,207.132812 L103.085938,211 L97.2851562,211 Z M102.910156,211 L102.910156,207.132812 L108.710938,207.132812 L108.710938,211 L102.910156,211 Z M108.535156,211 L108.535156,207.132812 L114.335938,207.132812 L114.335938,211 L108.535156,211 Z M114.160156,211 L114.160156,207.132812 L119.960938,207.132812 L119.960938,211 L114.160156,211 Z M131.070312,211 L131.070312,207.132812 L136.871094,207.132812 L136.871094,211 L131.070312,211 Z M136.695312,211 L136.695312,207.132812 L142.496094,207.132812 L142.496094,211 L136.695312,211 Z M142.320312,211 L142.320312,207.132812 L148.121094,207.132812 L148.121094,211 L142.320312,211 Z M147.945312,211 L147.945312,207.132812 L153.746094,207.132812 L153.746094,211 L147.945312,211 Z M153.570312,211 L153.570312,207.132812 L159.371094,207.132812 L159.371094,211 L153.570312,211 Z M170.480469,211 L170.480469,207.132812 L176.28125,207.132812 L176.28125,211 L170.480469,211 Z M176.105469,211 L176.105469,207.132812 L181.90625,207.132812 L181.90625,211 L176.105469,211 Z M181.730469,211 L181.730469,207.132812 L187.53125,207.132812 L187.53125,211 L181.730469,211 Z M187.355469,211 L187.355469,207.132812 L193.15625,207.132812 L193.15625,211 L187.355469,211 Z M41,221 L41,217.132812 L46.8007812,217.132812 L46.8007812,221 L41,221 Z M46.625,221 L46.625,217.132812 L52.4257812,217.132812 L52.4257812,221 L46.625,221 Z M52.25,221 L52.25,217.132812 L58.0507812,217.132812 L58.0507812,221 L52.25,221 Z M57.875,221 L57.875,217.132812 L63.6757812,217.132812 L63.6757812,221 L57.875,221 Z M63.5,221 L63.5,217.132812 L69.3007812,217.132812 L69.3007812,221 L63.5,221 Z M69.125,221 L69.125,217.132812 L74.9257812,217.132812 L74.9257812,221 L69.125,221 Z M74.75,221 L74.75,217.132812 L80.5507812,217.132812 L80.5507812,221 L74.75,221 Z M80.375,221 L80.375,217.132812 L86.1757812,217.132812 L86.1757812,221 L80.375,221 Z M86,221 L86,217.132812 L91.8007812,217.132812 L91.8007812,221 L86,221 Z M102.910156,221 L102.910156,217.132812 L108.710938,217.132812 L108.710938,221 L102.910156,221 Z M108.535156,221 L108.535156,217.132812 L114.335938,217.132812 L114.335938,221 L108.535156,221 Z M114.160156,221 L114.160156,217.132812 L119.960938,217.132812 L119.960938,221 L114.160156,221 Z M131.070312,221 L131.070312,217.132812 L136.871094,217.132812 L136.871094,221 L131.070312,221 Z M136.695312,221 L136.695312,217.132812 L142.496094,217.132812 L142.496094,221 L136.695312,221 Z M142.320312,221 L142.320312,217.132812 L148.121094,217.132812 L148.121094,221 L142.320312,221 Z M147.945312,221 L147.945312,217.132812 L153.746094,217.132812 L153.746094,221 L147.945312,221 Z M153.570312,221 L153.570312,217.132812 L159.371094,217.132812 L159.371094,221 L153.570312,221 Z M159.195312,221 L159.195312,217.132812 L164.996094,217.132812 L164.996094,221 L159.195312,221 Z M164.820312,221 L164.820312,217.132812 L170.621094,217.132812 L170.621094,221 L164.820312,221 Z M41,231 L41,227.132812 L46.8007812,227.132812 L46.8007812,231 L41,231 Z M46.625,231 L46.625,227.132812 L52.4257812,227.132812 L52.4257812,231 L46.625,231 Z M52.25,231 L52.25,227.132812 L58.0507812,227.132812 L58.0507812,231 L52.25,231 Z M57.875,231 L57.875,227.132812 L63.6757812,227.132812 L63.6757812,231 L57.875,231 Z M63.5,231 L63.5,227.132812 L69.3007812,227.132812 L69.3007812,231 L63.5,231 Z M80.4101562,231 L80.4101562,227.132812 L86.2109375,227.132812 L86.2109375,231 L80.4101562,231 Z M86.0351562,231 L86.0351562,227.132812 L91.8359375,227.132812 L91.8359375,231 L86.0351562,231 Z M91.6601562,231 L91.6601562,227.132812 L97.4609375,227.132812 L97.4609375,231 L91.6601562,231 Z M97.2851562,231 L97.2851562,227.132812 L103.085938,227.132812 L103.085938,231 L97.2851562,231 Z M102.910156,231 L102.910156,227.132812 L108.710938,227.132812 L108.710938,231 L102.910156,231 Z M108.535156,231 L108.535156,227.132812 L114.335938,227.132812 L114.335938,231 L108.535156,231 Z M114.160156,231 L114.160156,227.132812 L119.960938,227.132812 L119.960938,231 L114.160156,231 Z M119.785156,231 L119.785156,227.132812 L125.585938,227.132812 L125.585938,231 L119.785156,231 Z M125.410156,231 L125.410156,227.132812 L131.210938,227.132812 L131.210938,231 L125.410156,231 Z M131.035156,231 L131.035156,227.132812 L136.835938,227.132812 L136.835938,231 L131.035156,231 Z M136.660156,231 L136.660156,227.132812 L142.460938,227.132812 L142.460938,231 L136.660156,231 Z M153.570312,231 L153.570312,227.132812 L159.371094,227.132812 L159.371094,231 L153.570312,231 Z M159.195312,231 L159.195312,227.132812 L164.996094,227.132812 L164.996094,231 L159.195312,231 Z M164.820312,231 L164.820312,227.132812 L170.621094,227.132812 L170.621094,231 L164.820312,231 Z M41,241 L41,237.132812 L46.8007812,237.132812 L46.8007812,241 L41,241 Z M46.625,241 L46.625,237.132812 L52.4257812,237.132812 L52.4257812,241 L46.625,241 Z M52.25,241 L52.25,237.132812 L58.0507812,237.132812 L58.0507812,241 L52.25,241 Z M57.875,241 L57.875,237.132812 L63.6757812,237.132812 L63.6757812,241 L57.875,241 Z" id="Chart.js-will-resize" fill="#96B5B4" sketch:type="MSShapeGroup"></path>
                <path d="M220,45 L220,41.1328125 L225.800781,41.1328125 L225.800781,45 L220,45 Z M225.625,45 L225.625,41.1328125 L231.425781,41.1328125 L231.425781,45 L225.625,45 Z M231.25,45 L231.25,41.1328125 L237.050781,41.1328125 L237.050781,45 L231.25,45 Z M236.875,45 L236.875,41.1328125 L242.675781,41.1328125 L242.675781,45 L236.875,45 Z M242.5,45 L242.5,41.1328125 L248.300781,41.1328125 L248.300781,45 L242.5,45 Z M248.125,45 L248.125,41.1328125 L253.925781,41.1328125 L253.925781,45 L248.125,45 Z M253.75,45 L253.75,41.1328125 L259.550781,41.1328125 L259.550781,45 L253.75,45 Z M259.375,45 L259.375,41.1328125 L265.175781,41.1328125 L265.175781,45 L259.375,45 Z M276.285156,45 L276.285156,41.1328125 L282.085938,41.1328125 L282.085938,45 L276.285156,45 Z M281.910156,45 L281.910156,41.1328125 L287.710938,41.1328125 L287.710938,45 L281.910156,45 Z M287.535156,45 L287.535156,41.1328125 L293.335938,41.1328125 L293.335938,45 L287.535156,45 Z M293.160156,45 L293.160156,41.1328125 L298.960938,41.1328125 L298.960938,45 L293.160156,45 Z M310.070312,45 L310.070312,41.1328125 L315.871094,41.1328125 L315.871094,45 L310.070312,45 Z M315.695312,45 L315.695312,41.1328125 L321.496094,41.1328125 L321.496094,45 L315.695312,45 Z M321.320312,45 L321.320312,41.1328125 L327.121094,41.1328125 L327.121094,45 L321.320312,45 Z M326.945312,45 L326.945312,41.1328125 L332.746094,41.1328125 L332.746094,45 L326.945312,45 Z M332.570312,45 L332.570312,41.1328125 L338.371094,41.1328125 L338.371094,45 L332.570312,45 Z M338.195312,45 L338.195312,41.1328125 L343.996094,41.1328125 L343.996094,45 L338.195312,45 Z M220,55 L220,51.1328125 L225.800781,51.1328125 L225.800781,55 L220,55 Z M225.625,55 L225.625,51.1328125 L231.425781,51.1328125 L231.425781,55 L225.625,55 Z M231.25,55 L231.25,51.1328125 L237.050781,51.1328125 L237.050781,55 L231.25,55 Z M236.875,55 L236.875,51.1328125 L242.675781,51.1328125 L242.675781,55 L236.875,55 Z M253.785156,55 L253.785156,51.1328125 L259.585938,51.1328125 L259.585938,55 L253.785156,55 Z M259.410156,55 L259.410156,51.1328125 L265.210938,51.1328125 L265.210938,55 L259.410156,55 Z M265.035156,55 L265.035156,51.1328125 L270.835938,51.1328125 L270.835938,55 L265.035156,55 Z M270.660156,55 L270.660156,51.1328125 L276.460938,51.1328125 L276.460938,55 L270.660156,55 Z M276.285156,55 L276.285156,51.1328125 L282.085938,51.1328125 L282.085938,55 L276.285156,55 Z M293.195312,55 L293.195312,51.1328125 L298.996094,51.1328125 L298.996094,55 L293.195312,55 Z M298.820312,55 L298.820312,51.1328125 L304.621094,51.1328125 L304.621094,55 L298.820312,55 Z M315.730469,55 L315.730469,51.1328125 L321.53125,51.1328125 L321.53125,55 L315.730469,55 Z M321.355469,55 L321.355469,51.1328125 L327.15625,51.1328125 L327.15625,55 L321.355469,55 Z M326.980469,55 L326.980469,51.1328125 L332.78125,51.1328125 L332.78125,55 L326.980469,55 Z M220,65 L220,61.1328125 L225.800781,61.1328125 L225.800781,65 L220,65 Z M225.625,65 L225.625,61.1328125 L231.425781,61.1328125 L231.425781,65 L225.625,65 Z M231.25,65 L231.25,61.1328125 L237.050781,61.1328125 L237.050781,65 L231.25,65 Z M236.875,65 L236.875,61.1328125 L242.675781,61.1328125 L242.675781,65 L236.875,65 Z M242.5,65 L242.5,61.1328125 L248.300781,61.1328125 L248.300781,65 L242.5,65 Z M248.125,65 L248.125,61.1328125 L253.925781,61.1328125 L253.925781,65 L248.125,65 Z M253.75,65 L253.75,61.1328125 L259.550781,61.1328125 L259.550781,65 L253.75,65 Z M270.660156,65 L270.660156,61.1328125 L276.460938,61.1328125 L276.460938,65 L270.660156,65 Z M276.285156,65 L276.285156,61.1328125 L282.085938,61.1328125 L282.085938,65 L276.285156,65 Z M281.910156,65 L281.910156,61.1328125 L287.710938,61.1328125 L287.710938,65 L281.910156,65 Z M287.535156,65 L287.535156,61.1328125 L293.335938,61.1328125 L293.335938,65 L287.535156,65 Z M293.160156,65 L293.160156,61.1328125 L298.960938,61.1328125 L298.960938,65 L293.160156,65 Z M298.785156,65 L298.785156,61.1328125 L304.585938,61.1328125 L304.585938,65 L298.785156,65 Z M304.410156,65 L304.410156,61.1328125 L310.210938,61.1328125 L310.210938,65 L304.410156,65 Z M321.320312,65 L321.320312,61.1328125 L327.121094,61.1328125 L327.121094,65 L321.320312,65 Z M326.945312,65 L326.945312,61.1328125 L332.746094,61.1328125 L332.746094,65 L326.945312,65 Z M332.570312,65 L332.570312,61.1328125 L338.371094,61.1328125 L338.371094,65 L332.570312,65 Z M338.195312,65 L338.195312,61.1328125 L343.996094,61.1328125 L343.996094,65 L338.195312,65 Z M343.820312,65 L343.820312,61.1328125 L349.621094,61.1328125 L349.621094,65 L343.820312,65 Z M220,75 L220,71.1328125 L225.800781,71.1328125 L225.800781,75 L220,75 Z M225.625,75 L225.625,71.1328125 L231.425781,71.1328125 L231.425781,75 L225.625,75 Z M231.25,75 L231.25,71.1328125 L237.050781,71.1328125 L237.050781,75 L231.25,75 Z M236.875,75 L236.875,71.1328125 L242.675781,71.1328125 L242.675781,75 L236.875,75 Z M242.5,75 L242.5,71.1328125 L248.300781,71.1328125 L248.300781,75 L242.5,75 Z M259.410156,75 L259.410156,71.1328125 L265.210938,71.1328125 L265.210938,75 L259.410156,75 Z M265.035156,75 L265.035156,71.1328125 L270.835938,71.1328125 L270.835938,75 L265.035156,75 Z M270.660156,75 L270.660156,71.1328125 L276.460938,71.1328125 L276.460938,75 L270.660156,75 Z M276.285156,75 L276.285156,71.1328125 L282.085938,71.1328125 L282.085938,75 L276.285156,75 Z M293.195312,75 L293.195312,71.1328125 L298.996094,71.1328125 L298.996094,75 L293.195312,75 Z M298.820312,75 L298.820312,71.1328125 L304.621094,71.1328125 L304.621094,75 L298.820312,75 Z M304.445312,75 L304.445312,71.1328125 L310.246094,71.1328125 L310.246094,75 L304.445312,75 Z M310.070312,75 L310.070312,71.1328125 L315.871094,71.1328125 L315.871094,75 L310.070312,75 Z M315.695312,75 L315.695312,71.1328125 L321.496094,71.1328125 L321.496094,75 L315.695312,75 Z M321.320312,75 L321.320312,71.1328125 L327.121094,71.1328125 L327.121094,75 L321.320312,75 Z M326.945312,75 L326.945312,71.1328125 L332.746094,71.1328125 L332.746094,75 L326.945312,75 Z M332.570312,75 L332.570312,71.1328125 L338.371094,71.1328125 L338.371094,75 L332.570312,75 Z M338.195312,75 L338.195312,71.1328125 L343.996094,71.1328125 L343.996094,75 L338.195312,75 Z M220,85 L220,81.1328125 L225.800781,81.1328125 L225.800781,85 L220,85 Z M225.625,85 L225.625,81.1328125 L231.425781,81.1328125 L231.425781,85 L225.625,85 Z M231.25,85 L231.25,81.1328125 L237.050781,81.1328125 L237.050781,85 L231.25,85 Z M248.160156,85 L248.160156,81.1328125 L253.960938,81.1328125 L253.960938,85 L248.160156,85 Z M253.785156,85 L253.785156,81.1328125 L259.585938,81.1328125 L259.585938,85 L253.785156,85 Z M259.410156,85 L259.410156,81.1328125 L265.210938,81.1328125 L265.210938,85 L259.410156,85 Z M265.035156,85 L265.035156,81.1328125 L270.835938,81.1328125 L270.835938,85 L265.035156,85 Z M270.660156,85 L270.660156,81.1328125 L276.460938,81.1328125 L276.460938,85 L270.660156,85 Z M276.285156,85 L276.285156,81.1328125 L282.085938,81.1328125 L282.085938,85 L276.285156,85 Z M281.910156,85 L281.910156,81.1328125 L287.710938,81.1328125 L287.710938,85 L281.910156,85 Z M298.820312,85 L298.820312,81.1328125 L304.621094,81.1328125 L304.621094,85 L298.820312,85 Z M304.445312,85 L304.445312,81.1328125 L310.246094,81.1328125 L310.246094,85 L304.445312,85 Z M310.070312,85 L310.070312,81.1328125 L315.871094,81.1328125 L315.871094,85 L310.070312,85 Z M315.695312,85 L315.695312,81.1328125 L321.496094,81.1328125 L321.496094,85 L315.695312,85 Z M321.320312,85 L321.320312,81.1328125 L327.121094,81.1328125 L327.121094,85 L321.320312,85 Z M220,95 L220,91.1328125 L225.800781,91.1328125 L225.800781,95 L220,95 Z M225.625,95 L225.625,91.1328125 L231.425781,91.1328125 L231.425781,95 L225.625,95 Z M231.25,95 L231.25,91.1328125 L237.050781,91.1328125 L237.050781,95 L231.25,95 Z M236.875,95 L236.875,91.1328125 L242.675781,91.1328125 L242.675781,95 L236.875,95 Z M242.5,95 L242.5,91.1328125 L248.300781,91.1328125 L248.300781,95 L242.5,95 Z M248.125,95 L248.125,91.1328125 L253.925781,91.1328125 L253.925781,95 L248.125,95 Z M253.75,95 L253.75,91.1328125 L259.550781,91.1328125 L259.550781,95 L253.75,95 Z M259.375,95 L259.375,91.1328125 L265.175781,91.1328125 L265.175781,95 L259.375,95 Z M265,95 L265,91.1328125 L270.800781,91.1328125 L270.800781,95 L265,95 Z M270.625,95 L270.625,91.1328125 L276.425781,91.1328125 L276.425781,95 L270.625,95 Z M276.25,95 L276.25,91.1328125 L282.050781,91.1328125 L282.050781,95 L276.25,95 Z M293.160156,95 L293.160156,91.1328125 L298.960938,91.1328125 L298.960938,95 L293.160156,95 Z M298.785156,95 L298.785156,91.1328125 L304.585938,91.1328125 L304.585938,95 L298.785156,95 Z M304.410156,95 L304.410156,91.1328125 L310.210938,91.1328125 L310.210938,95 L304.410156,95 Z M321.320312,95 L321.320312,91.1328125 L327.121094,91.1328125 L327.121094,95 L321.320312,95 Z M326.945312,95 L326.945312,91.1328125 L332.746094,91.1328125 L332.746094,95 L326.945312,95 Z M332.570312,95 L332.570312,91.1328125 L338.371094,91.1328125 L338.371094,95 L332.570312,95 Z M338.195312,95 L338.195312,91.1328125 L343.996094,91.1328125 L343.996094,95 L338.195312,95 Z M220,121 L220,117.132812 L225.800781,117.132812 L225.800781,121 L220,121 Z M225.625,121 L225.625,117.132812 L231.425781,117.132812 L231.425781,121 L225.625,121 Z M231.25,121 L231.25,117.132812 L237.050781,117.132812 L237.050781,121 L231.25,121 Z M236.875,121 L236.875,117.132812 L242.675781,117.132812 L242.675781,121 L236.875,121 Z M242.5,121 L242.5,117.132812 L248.300781,117.132812 L248.300781,121 L242.5,121 Z M248.125,121 L248.125,117.132812 L253.925781,117.132812 L253.925781,121 L248.125,121 Z M253.75,121 L253.75,117.132812 L259.550781,117.132812 L259.550781,121 L253.75,121 Z M259.375,121 L259.375,117.132812 L265.175781,117.132812 L265.175781,121 L259.375,121 Z M276.285156,121 L276.285156,117.132812 L282.085938,117.132812 L282.085938,121 L276.285156,121 Z M281.910156,121 L281.910156,117.132812 L287.710938,117.132812 L287.710938,121 L281.910156,121 Z M298.820312,121 L298.820312,117.132812 L304.621094,117.132812 L304.621094,121 L298.820312,121 Z M304.445312,121 L304.445312,117.132812 L310.246094,117.132812 L310.246094,121 L304.445312,121 Z M310.070312,121 L310.070312,117.132812 L315.871094,117.132812 L315.871094,121 L310.070312,121 Z M315.695312,121 L315.695312,117.132812 L321.496094,117.132812 L321.496094,121 L315.695312,121 Z M321.320312,121 L321.320312,117.132812 L327.121094,117.132812 L327.121094,121 L321.320312,121 Z M326.945312,121 L326.945312,117.132812 L332.746094,117.132812 L332.746094,121 L326.945312,121 Z M332.570312,121 L332.570312,117.132812 L338.371094,117.132812 L338.371094,121 L332.570312,121 Z M338.195312,121 L338.195312,117.132812 L343.996094,117.132812 L343.996094,121 L338.195312,121 Z M220,131 L220,127.132812 L225.800781,127.132812 L225.800781,131 L220,131 Z M225.625,131 L225.625,127.132812 L231.425781,127.132812 L231.425781,131 L225.625,131 Z M231.25,131 L231.25,127.132812 L237.050781,127.132812 L237.050781,131 L231.25,131 Z M248.160156,131 L248.160156,127.132812 L253.960938,127.132812 L253.960938,131 L248.160156,131 Z M253.785156,131 L253.785156,127.132812 L259.585938,127.132812 L259.585938,131 L253.785156,131 Z M259.410156,131 L259.410156,127.132812 L265.210938,127.132812 L265.210938,131 L259.410156,131 Z M265.035156,131 L265.035156,127.132812 L270.835938,127.132812 L270.835938,131 L265.035156,131 Z M281.945312,131 L281.945312,127.132812 L287.746094,127.132812 L287.746094,131 L281.945312,131 Z M287.570312,131 L287.570312,127.132812 L293.371094,127.132812 L293.371094,131 L287.570312,131 Z M304.480469,131 L304.480469,127.132812 L310.28125,127.132812 L310.28125,131 L304.480469,131 Z M310.105469,131 L310.105469,127.132812 L315.90625,127.132812 L315.90625,131 L310.105469,131 Z M315.730469,131 L315.730469,127.132812 L321.53125,127.132812 L321.53125,131 L315.730469,131 Z M332.640625,131 L332.640625,127.132812 L338.441406,127.132812 L338.441406,131 L332.640625,131 Z M338.265625,131 L338.265625,127.132812 L344.066406,127.132812 L344.066406,131 L338.265625,131 Z M343.890625,131 L343.890625,127.132812 L349.691406,127.132812 L349.691406,131 L343.890625,131 Z M349.515625,131 L349.515625,127.132812 L355.316406,127.132812 L355.316406,131 L349.515625,131 Z M355.140625,131 L355.140625,127.132812 L360.941406,127.132812 L360.941406,131 L355.140625,131 Z M220,141 L220,137.132812 L225.800781,137.132812 L225.800781,141 L220,141 Z M225.625,141 L225.625,137.132812 L231.425781,137.132812 L231.425781,141 L225.625,141 Z M231.25,141 L231.25,137.132812 L237.050781,137.132812 L237.050781,141 L231.25,141 Z M236.875,141 L236.875,137.132812 L242.675781,137.132812 L242.675781,141 L236.875,141 Z M242.5,141 L242.5,137.132812 L248.300781,137.132812 L248.300781,141 L242.5,141 Z M259.410156,141 L259.410156,137.132812 L265.210938,137.132812 L265.210938,141 L259.410156,141 Z M265.035156,141 L265.035156,137.132812 L270.835938,137.132812 L270.835938,141 L265.035156,141 Z M270.660156,141 L270.660156,137.132812 L276.460938,137.132812 L276.460938,141 L270.660156,141 Z M276.285156,141 L276.285156,137.132812 L282.085938,137.132812 L282.085938,141 L276.285156,141 Z M293.195312,141 L293.195312,137.132812 L298.996094,137.132812 L298.996094,141 L293.195312,141 Z M298.820312,141 L298.820312,137.132812 L304.621094,137.132812 L304.621094,141 L298.820312,141 Z M304.445312,141 L304.445312,137.132812 L310.246094,137.132812 L310.246094,141 L304.445312,141 Z M310.070312,141 L310.070312,137.132812 L315.871094,137.132812 L315.871094,141 L310.070312,141 Z M326.980469,141 L326.980469,137.132812 L332.78125,137.132812 L332.78125,141 L326.980469,141 Z M332.605469,141 L332.605469,137.132812 L338.40625,137.132812 L338.40625,141 L332.605469,141 Z M338.230469,141 L338.230469,137.132812 L344.03125,137.132812 L344.03125,141 L338.230469,141 Z M343.855469,141 L343.855469,137.132812 L349.65625,137.132812 L349.65625,141 L343.855469,141 Z M349.480469,141 L349.480469,137.132812 L355.28125,137.132812 L355.28125,141 L349.480469,141 Z M220,151 L220,147.132812 L225.800781,147.132812 L225.800781,151 L220,151 Z M225.625,151 L225.625,147.132812 L231.425781,147.132812 L231.425781,151 L225.625,151 Z M231.25,151 L231.25,147.132812 L237.050781,147.132812 L237.050781,151 L231.25,151 Z M248.160156,151 L248.160156,147.132812 L253.960938,147.132812 L253.960938,151 L248.160156,151 Z M253.785156,151 L253.785156,147.132812 L259.585938,147.132812 L259.585938,151 L253.785156,151 Z M270.695312,151 L270.695312,147.132812 L276.496094,147.132812 L276.496094,151 L270.695312,151 Z M276.320312,151 L276.320312,147.132812 L282.121094,147.132812 L282.121094,151 L276.320312,151 Z M281.945312,151 L281.945312,147.132812 L287.746094,147.132812 L287.746094,151 L281.945312,151 Z M298.855469,151 L298.855469,147.132812 L304.65625,147.132812 L304.65625,151 L298.855469,151 Z M304.480469,151 L304.480469,147.132812 L310.28125,147.132812 L310.28125,151 L304.480469,151 Z M310.105469,151 L310.105469,147.132812 L315.90625,147.132812 L315.90625,151 L310.105469,151 Z M327.015625,151 L327.015625,147.132812 L332.816406,147.132812 L332.816406,151 L327.015625,151 Z M332.640625,151 L332.640625,147.132812 L338.441406,147.132812 L338.441406,151 L332.640625,151 Z M338.265625,151 L338.265625,147.132812 L344.066406,147.132812 L344.066406,151 L338.265625,151 Z M343.890625,151 L343.890625,147.132812 L349.691406,147.132812 L349.691406,151 L343.890625,151 Z M220,161 L220,157.132812 L225.800781,157.132812 L225.800781,161 L220,161 Z M225.625,161 L225.625,157.132812 L231.425781,157.132812 L231.425781,161 L225.625,161 Z M231.25,161 L231.25,157.132812 L237.050781,157.132812 L237.050781,161 L231.25,161 Z M236.875,161 L236.875,157.132812 L242.675781,157.132812 L242.675781,161 L236.875,161 Z M253.785156,161 L253.785156,157.132812 L259.585938,157.132812 L259.585938,161 L253.785156,161 Z M259.410156,161 L259.410156,157.132812 L265.210938,157.132812 L265.210938,161 L259.410156,161 Z M265.035156,161 L265.035156,157.132812 L270.835938,157.132812 L270.835938,161 L265.035156,161 Z M270.660156,161 L270.660156,157.132812 L276.460938,157.132812 L276.460938,161 L270.660156,161 Z M276.285156,161 L276.285156,157.132812 L282.085938,157.132812 L282.085938,161 L276.285156,161 Z M293.195312,161 L293.195312,157.132812 L298.996094,157.132812 L298.996094,161 L293.195312,161 Z M298.820312,161 L298.820312,157.132812 L304.621094,157.132812 L304.621094,161 L298.820312,161 Z M304.445312,161 L304.445312,157.132812 L310.246094,157.132812 L310.246094,161 L304.445312,161 Z M310.070312,161 L310.070312,157.132812 L315.871094,157.132812 L315.871094,161 L310.070312,161 Z M315.695312,161 L315.695312,157.132812 L321.496094,157.132812 L321.496094,161 L315.695312,161 Z M332.605469,161 L332.605469,157.132812 L338.40625,157.132812 L338.40625,161 L332.605469,161 Z M338.230469,161 L338.230469,157.132812 L344.03125,157.132812 L344.03125,161 L338.230469,161 Z M343.855469,161 L343.855469,157.132812 L349.65625,157.132812 L349.65625,161 L343.855469,161 Z M349.480469,161 L349.480469,157.132812 L355.28125,157.132812 L355.28125,161 L349.480469,161 Z M355.105469,161 L355.105469,157.132812 L360.90625,157.132812 L360.90625,161 L355.105469,161 Z M220,171 L220,167.132812 L225.800781,167.132812 L225.800781,171 L220,171 Z M225.625,171 L225.625,167.132812 L231.425781,167.132812 L231.425781,171 L225.625,171 Z M231.25,171 L231.25,167.132812 L237.050781,167.132812 L237.050781,171 L231.25,171 Z M248.160156,171 L248.160156,167.132812 L253.960938,167.132812 L253.960938,171 L248.160156,171 Z M253.785156,171 L253.785156,167.132812 L259.585938,167.132812 L259.585938,171 L253.785156,171 Z M259.410156,171 L259.410156,167.132812 L265.210938,167.132812 L265.210938,171 L259.410156,171 Z M265.035156,171 L265.035156,167.132812 L270.835938,167.132812 L270.835938,171 L265.035156,171 Z M281.945312,171 L281.945312,167.132812 L287.746094,167.132812 L287.746094,171 L281.945312,171 Z M287.570312,171 L287.570312,167.132812 L293.371094,167.132812 L293.371094,171 L287.570312,171 Z M293.195312,171 L293.195312,167.132812 L298.996094,167.132812 L298.996094,171 L293.195312,171 Z M310.105469,171 L310.105469,167.132812 L315.90625,167.132812 L315.90625,171 L310.105469,171 Z M315.730469,171 L315.730469,167.132812 L321.53125,167.132812 L321.53125,171 L315.730469,171 Z M321.355469,171 L321.355469,167.132812 L327.15625,167.132812 L327.15625,171 L321.355469,171 Z M326.980469,171 L326.980469,167.132812 L332.78125,167.132812 L332.78125,171 L326.980469,171 Z M220,181 L220,177.132812 L225.800781,177.132812 L225.800781,181 L220,181 Z M225.625,181 L225.625,177.132812 L231.425781,177.132812 L231.425781,181 L225.625,181 Z M231.25,181 L231.25,177.132812 L237.050781,177.132812 L237.050781,181 L231.25,181 Z M236.875,181 L236.875,177.132812 L242.675781,177.132812 L242.675781,181 L236.875,181 Z M242.5,181 L242.5,177.132812 L248.300781,177.132812 L248.300781,181 L242.5,181 Z M248.125,181 L248.125,177.132812 L253.925781,177.132812 L253.925781,181 L248.125,181 Z M253.75,181 L253.75,177.132812 L259.550781,177.132812 L259.550781,181 L253.75,181 Z M220,207 L220,203.132812 L225.800781,203.132812 L225.800781,207 L220,207 Z M225.625,207 L225.625,203.132812 L231.425781,203.132812 L231.425781,207 L225.625,207 Z M231.25,207 L231.25,203.132812 L237.050781,203.132812 L237.050781,207 L231.25,207 Z M236.875,207 L236.875,203.132812 L242.675781,203.132812 L242.675781,207 L236.875,207 Z M242.5,207 L242.5,203.132812 L248.300781,203.132812 L248.300781,207 L242.5,207 Z M248.125,207 L248.125,203.132812 L253.925781,203.132812 L253.925781,207 L248.125,207 Z M253.75,207 L253.75,203.132812 L259.550781,203.132812 L259.550781,207 L253.75,207 Z M259.375,207 L259.375,203.132812 L265.175781,203.132812 L265.175781,207 L259.375,207 Z M276.285156,207 L276.285156,203.132812 L282.085938,203.132812 L282.085938,207 L276.285156,207 Z M281.910156,207 L281.910156,203.132812 L287.710938,203.132812 L287.710938,207 L281.910156,207 Z M287.535156,207 L287.535156,203.132812 L293.335938,203.132812 L293.335938,207 L287.535156,207 Z M293.160156,207 L293.160156,203.132812 L298.960938,203.132812 L298.960938,207 L293.160156,207 Z M298.785156,207 L298.785156,203.132812 L304.585938,203.132812 L304.585938,207 L298.785156,207 Z M304.410156,207 L304.410156,203.132812 L310.210938,203.132812 L310.210938,207 L304.410156,207 Z M310.035156,207 L310.035156,203.132812 L315.835938,203.132812 L315.835938,207 L310.035156,207 Z M315.660156,207 L315.660156,203.132812 L321.460938,203.132812 L321.460938,207 L315.660156,207 Z M220,217 L220,213.132812 L225.800781,213.132812 L225.800781,217 L220,217 Z M225.625,217 L225.625,213.132812 L231.425781,213.132812 L231.425781,217 L225.625,217 Z M231.25,217 L231.25,213.132812 L237.050781,213.132812 L237.050781,217 L231.25,217 Z M236.875,217 L236.875,213.132812 L242.675781,213.132812 L242.675781,217 L236.875,217 Z M242.5,217 L242.5,213.132812 L248.300781,213.132812 L248.300781,217 L242.5,217 Z M248.125,217 L248.125,213.132812 L253.925781,213.132812 L253.925781,217 L248.125,217 Z M253.75,217 L253.75,213.132812 L259.550781,213.132812 L259.550781,217 L253.75,217 Z M270.660156,217 L270.660156,213.132812 L276.460938,213.132812 L276.460938,217 L270.660156,217 Z M276.285156,217 L276.285156,213.132812 L282.085938,213.132812 L282.085938,217 L276.285156,217 Z M281.910156,217 L281.910156,213.132812 L287.710938,213.132812 L287.710938,217 L281.910156,217 Z M287.535156,217 L287.535156,213.132812 L293.335938,213.132812 L293.335938,217 L287.535156,217 Z M293.160156,217 L293.160156,213.132812 L298.960938,213.132812 L298.960938,217 L293.160156,217 Z M298.785156,217 L298.785156,213.132812 L304.585938,213.132812 L304.585938,217 L298.785156,217 Z M315.695312,217 L315.695312,213.132812 L321.496094,213.132812 L321.496094,217 L315.695312,217 Z M321.320312,217 L321.320312,213.132812 L327.121094,213.132812 L327.121094,217 L321.320312,217 Z M326.945312,217 L326.945312,213.132812 L332.746094,213.132812 L332.746094,217 L326.945312,217 Z M332.570312,217 L332.570312,213.132812 L338.371094,213.132812 L338.371094,217 L332.570312,217 Z M338.195312,217 L338.195312,213.132812 L343.996094,213.132812 L343.996094,217 L338.195312,217 Z M343.820312,217 L343.820312,213.132812 L349.621094,213.132812 L349.621094,217 L343.820312,217 Z M349.445312,217 L349.445312,213.132812 L355.246094,213.132812 L355.246094,217 L349.445312,217 Z M220,227 L220,223.132812 L225.800781,223.132812 L225.800781,227 L220,227 Z M225.625,227 L225.625,223.132812 L231.425781,223.132812 L231.425781,227 L225.625,227 Z M231.25,227 L231.25,223.132812 L237.050781,223.132812 L237.050781,227 L231.25,227 Z M248.160156,227 L248.160156,223.132812 L253.960938,223.132812 L253.960938,227 L248.160156,227 Z M253.785156,227 L253.785156,223.132812 L259.585938,223.132812 L259.585938,227 L253.785156,227 Z M259.410156,227 L259.410156,223.132812 L265.210938,223.132812 L265.210938,227 L259.410156,227 Z M265.035156,227 L265.035156,223.132812 L270.835938,223.132812 L270.835938,227 L265.035156,227 Z M270.660156,227 L270.660156,223.132812 L276.460938,223.132812 L276.460938,227 L270.660156,227 Z M276.285156,227 L276.285156,223.132812 L282.085938,223.132812 L282.085938,227 L276.285156,227 Z M293.195312,227 L293.195312,223.132812 L298.996094,223.132812 L298.996094,227 L293.195312,227 Z M298.820312,227 L298.820312,223.132812 L304.621094,223.132812 L304.621094,227 L298.820312,227 Z M304.445312,227 L304.445312,223.132812 L310.246094,223.132812 L310.246094,227 L304.445312,227 Z M310.070312,227 L310.070312,223.132812 L315.871094,223.132812 L315.871094,227 L310.070312,227 Z M315.695312,227 L315.695312,223.132812 L321.496094,223.132812 L321.496094,227 L315.695312,227 Z M321.320312,227 L321.320312,223.132812 L327.121094,223.132812 L327.121094,227 L321.320312,227 Z M326.945312,227 L326.945312,223.132812 L332.746094,223.132812 L332.746094,227 L326.945312,227 Z M332.570312,227 L332.570312,223.132812 L338.371094,223.132812 L338.371094,227 L332.570312,227 Z M349.480469,227 L349.480469,223.132812 L355.28125,223.132812 L355.28125,227 L349.480469,227 Z M355.105469,227 L355.105469,223.132812 L360.90625,223.132812 L360.90625,227 L355.105469,227 Z M220,237 L220,233.132812 L225.800781,233.132812 L225.800781,237 L220,237 Z M225.625,237 L225.625,233.132812 L231.425781,233.132812 L231.425781,237 L225.625,237 Z M231.25,237 L231.25,233.132812 L237.050781,233.132812 L237.050781,237 L231.25,237 Z M236.875,237 L236.875,233.132812 L242.675781,233.132812 L242.675781,237 L236.875,237 Z M242.5,237 L242.5,233.132812 L248.300781,233.132812 L248.300781,237 L242.5,237 Z M248.125,237 L248.125,233.132812 L253.925781,233.132812 L253.925781,237 L248.125,237 Z M253.75,237 L253.75,233.132812 L259.550781,233.132812 L259.550781,237 L253.75,237 Z M259.375,237 L259.375,233.132812 L265.175781,233.132812 L265.175781,237 L259.375,237 Z M265,237 L265,233.132812 L270.800781,233.132812 L270.800781,237 L265,237 Z M270.625,237 L270.625,233.132812 L276.425781,233.132812 L276.425781,237 L270.625,237 Z M276.25,237 L276.25,233.132812 L282.050781,233.132812 L282.050781,237 L276.25,237 Z M281.875,237 L281.875,233.132812 L287.675781,233.132812 L287.675781,237 L281.875,237 Z M298.785156,237 L298.785156,233.132812 L304.585938,233.132812 L304.585938,237 L298.785156,237 Z M304.410156,237 L304.410156,233.132812 L310.210938,233.132812 L310.210938,237 L304.410156,237 Z M310.035156,237 L310.035156,233.132812 L315.835938,233.132812 L315.835938,237 L310.035156,237 Z" id="Chart.js-will-resize" fill="#96B5B4" sketch:type="MSShapeGroup"></path>
            </g>
            <g id="Mobile" sketch:type="MSLayerGroup" transform="translate(41.000000, 257.000000)">
                <path d="M0,8.00436425 L0,131.995636 C0,136.416324 3.5797863,140 8.00005106,140 L71.9999489,140 C76.4182551,140 80,136.416346 80,131.995636 L80,8.00436425 C80,3.58367594 76.4202137,0 71.9999489,0 L8.00005106,0 C3.58174486,0 0,3.58365403 0,8.00436425 Z" id="Mobile-Screen" fill="#2B303B" sketch:type="MSShapeGroup"></path>
                <path d="M71.9999489,10 C73.1048773,10 74,10.8477597 74,11.896965 L74,118.103035 C74,119.151396 73.1038326,120 71.9999489,120 L8.00005106,120 C6.89512271,120 6,119.15224 6,118.103035 L6,11.896965 C6,10.848604 6.89616743,10 8.00005106,10 L71.9999489,10 Z" id="Path" fill="#FFFFFF" sketch:type="MSShapeGroup"></path>
                <circle id="Mobile-button" stroke="#5E677D" stroke-width="2" sketch:type="MSShapeGroup" cx="40" cy="130" r="5"></circle>
                <g id="Line-Graph-2" transform="translate(10.000000, 20.000000)" sketch:type="MSShapeGroup">
                    <path d="M13.7248613,36.1540557 L14.4114885,36.4978779 L14.9543149,35.9542472 L29.1554983,21.732025 L27.9260447,21.9318334 L42.1272281,29.0429446 L42.8138553,29.3867668 L43.3566818,28.8431361 L57.5578652,14.6209139 L56.0516022,13.1124194 L41.8504188,27.3346417 L43.0798725,27.1348332 L28.878689,20.0237221 L28.1920618,19.6798999 L27.6492354,20.2235305 L13.4480519,34.4457528 L14.6775056,34.2459443 L0.476322173,27.1348332 L0.476322204,29.1863656 L13.7248613,36.1540557 Z" id="Path-2" fill="#5B90BF"></path>
                    <ellipse id="Oval-1" stroke="#5B90BF" stroke-width="2" fill="#FFFFFF" cx="28.4023669" cy="21.3333333" rx="3.19526627" ry="3.2"></ellipse>
                    <ellipse id="Oval-3" stroke="#5B90BF" stroke-width="2" fill="#FFFFFF" cx="42.6035503" cy="28.4444444" rx="3.19526627" ry="3.2"></ellipse>
                    <ellipse id="Oval-4" stroke="#5B90BF" stroke-width="2" fill="#FFFFFF" cx="56.8047337" cy="14.2222222" rx="3.19526627" ry="3.2"></ellipse>
                    <ellipse id="Oval-2" stroke="#5B90BF" stroke-width="2" fill="#FFFFFF" cx="14.2011834" cy="35.5555556" rx="3.19526627" ry="3.2"></ellipse>
                    <path d="M0,0 L0,48 L56.8047337,48" id="Path-1" stroke="#DFE1E8" stroke-width="2"></path>
                </g>
                <path d="M11,75 L11,73.28125 L13.578125,73.28125 L13.578125,75 L11,75 Z M13.42,75 L13.42,73.28125 L15.998125,73.28125 L15.998125,75 L13.42,75 Z M15.84,75 L15.84,73.28125 L18.418125,73.28125 L18.418125,75 L15.84,75 Z M23.195625,75 L23.195625,73.28125 L25.77375,73.28125 L25.77375,75 L23.195625,75 Z M25.615625,75 L25.615625,73.28125 L28.19375,73.28125 L28.19375,75 L25.615625,75 Z M28.035625,75 L28.035625,73.28125 L30.61375,73.28125 L30.61375,75 L28.035625,75 Z M30.455625,75 L30.455625,73.28125 L33.03375,73.28125 L33.03375,75 L30.455625,75 Z M37.8112499,75 L37.8112499,73.28125 L40.3893749,73.28125 L40.3893749,75 L37.8112499,75 Z M40.2312499,75 L40.2312499,73.28125 L42.8093749,73.28125 L42.8093749,75 L40.2312499,75 Z M47.5868749,75 L47.5868749,73.28125 L50.1649999,73.28125 L50.1649999,75 L47.5868749,75 Z M50.0068749,75 L50.0068749,73.28125 L52.5849999,73.28125 L52.5849999,75 L50.0068749,75 Z M52.4268749,75 L52.4268749,73.28125 L55.0049999,73.28125 L55.0049999,75 L52.4268749,75 Z M54.8468749,75 L54.8468749,73.28125 L57.4249999,73.28125 L57.4249999,75 L54.8468749,75 Z M11,80 L11,78.28125 L13.578125,78.28125 L13.578125,80 L11,80 Z M13.42,80 L13.42,78.28125 L15.998125,78.28125 L15.998125,80 L13.42,80 Z M15.84,80 L15.84,78.28125 L18.418125,78.28125 L18.418125,80 L15.84,80 Z M23.195625,80 L23.195625,78.28125 L25.77375,78.28125 L25.77375,80 L23.195625,80 Z M25.615625,80 L25.615625,78.28125 L28.19375,78.28125 L28.19375,80 L25.615625,80 Z M28.035625,80 L28.035625,78.28125 L30.61375,78.28125 L30.61375,80 L28.035625,80 Z M35.39125,80 L35.39125,78.28125 L37.969375,78.28125 L37.969375,80 L35.39125,80 Z M37.8112499,80 L37.8112499,78.28125 L40.3893749,78.28125 L40.3893749,80 L37.8112499,80 Z M40.2312499,80 L40.2312499,78.28125 L42.8093749,78.28125 L42.8093749,80 L40.2312499,80 Z M42.6512499,80 L42.6512499,78.28125 L45.2293749,78.28125 L45.2293749,80 L42.6512499,80 Z M50.0068749,80 L50.0068749,78.28125 L52.5849999,78.28125 L52.5849999,80 L50.0068749,80 Z M57.3624999,80 L57.3624999,78.28125 L59.9406249,78.28125 L59.9406249,80 L57.3624999,80 Z M59.7824999,80 L59.7824999,78.28125 L62.3606249,78.28125 L62.3606249,80 L59.7824999,80 Z M62.2024999,80 L62.2024999,78.28125 L64.7806249,78.28125 L64.7806249,80 L62.2024999,80 Z M64.6224999,80 L64.6224999,78.28125 L67.2006249,78.28125 L67.2006249,80 L64.6224999,80 Z M11,85 L11,83.28125 L13.578125,83.28125 L13.578125,85 L11,85 Z M13.42,85 L13.42,83.28125 L15.998125,83.28125 L15.998125,85 L13.42,85 Z M15.84,85 L15.84,83.28125 L18.418125,83.28125 L18.418125,85 L15.84,85 Z M23.195625,85 L23.195625,83.28125 L25.77375,83.28125 L25.77375,85 L23.195625,85 Z M30.55125,85 L30.55125,83.28125 L33.129375,83.28125 L33.129375,85 L30.55125,85 Z M32.97125,85 L32.97125,83.28125 L35.549375,83.28125 L35.549375,85 L32.97125,85 Z M35.39125,85 L35.39125,83.28125 L37.969375,83.28125 L37.969375,85 L35.39125,85 Z M42.7468749,85 L42.7468749,83.28125 L45.3249999,83.28125 L45.3249999,85 L42.7468749,85 Z M45.1668749,85 L45.1668749,83.28125 L47.7449999,83.28125 L47.7449999,85 L45.1668749,85 Z M47.5868749,85 L47.5868749,83.28125 L50.1649999,83.28125 L50.1649999,85 L47.5868749,85 Z M54.9424999,85 L54.9424999,83.28125 L57.5206249,83.28125 L57.5206249,85 L54.9424999,85 Z M57.3624999,85 L57.3624999,83.28125 L59.9406249,83.28125 L59.9406249,85 L57.3624999,85 Z M59.7824999,85 L59.7824999,83.28125 L62.3606249,83.28125 L62.3606249,85 L59.7824999,85 Z M11,90 L11,88.28125 L13.578125,88.28125 L13.578125,90 L11,90 Z M18.355625,90 L18.355625,88.28125 L20.93375,88.28125 L20.93375,90 L18.355625,90 Z M20.775625,90 L20.775625,88.28125 L23.35375,88.28125 L23.35375,90 L20.775625,90 Z M23.195625,90 L23.195625,88.28125 L25.77375,88.28125 L25.77375,90 L23.195625,90 Z M25.615625,90 L25.615625,88.28125 L28.19375,88.28125 L28.19375,90 L25.615625,90 Z M28.035625,90 L28.035625,88.28125 L30.61375,88.28125 L30.61375,90 L28.035625,90 Z M30.455625,90 L30.455625,88.28125 L33.03375,88.28125 L33.03375,90 L30.455625,90 Z M32.875625,90 L32.875625,88.28125 L35.45375,88.28125 L35.45375,90 L32.875625,90 Z M35.2956249,90 L35.2956249,88.28125 L37.8737499,88.28125 L37.8737499,90 L35.2956249,90 Z M42.6512499,90 L42.6512499,88.28125 L45.2293749,88.28125 L45.2293749,90 L42.6512499,90 Z M45.0712499,90 L45.0712499,88.28125 L47.6493749,88.28125 L47.6493749,90 L45.0712499,90 Z M52.4268749,90 L52.4268749,88.28125 L55.0049999,88.28125 L55.0049999,90 L52.4268749,90 Z M54.8468749,90 L54.8468749,88.28125 L57.4249999,88.28125 L57.4249999,90 L54.8468749,90 Z M57.2668749,90 L57.2668749,88.28125 L59.8449999,88.28125 L59.8449999,90 L57.2668749,90 Z M11,95 L11,93.28125 L13.578125,93.28125 L13.578125,95 L11,95 Z M13.42,95 L13.42,93.28125 L15.998125,93.28125 L15.998125,95 L13.42,95 Z M15.84,95 L15.84,93.28125 L18.418125,93.28125 L18.418125,95 L15.84,95 Z M18.26,95 L18.26,93.28125 L20.838125,93.28125 L20.838125,95 L18.26,95 Z M20.68,95 L20.68,93.28125 L23.258125,93.28125 L23.258125,95 L20.68,95 Z M28.035625,95 L28.035625,93.28125 L30.61375,93.28125 L30.61375,95 L28.035625,95 Z M30.455625,95 L30.455625,93.28125 L33.03375,93.28125 L33.03375,95 L30.455625,95 Z M32.875625,95 L32.875625,93.28125 L35.45375,93.28125 L35.45375,95 L32.875625,95 Z M35.2956249,95 L35.2956249,93.28125 L37.8737499,93.28125 L37.8737499,95 L35.2956249,95 Z M37.7156249,95 L37.7156249,93.28125 L40.2937499,93.28125 L40.2937499,95 L37.7156249,95 Z M40.1356249,95 L40.1356249,93.28125 L42.7137499,93.28125 L42.7137499,95 L40.1356249,95 Z M47.4912499,95 L47.4912499,93.28125 L50.0693749,93.28125 L50.0693749,95 L47.4912499,95 Z M49.9112499,95 L49.9112499,93.28125 L52.4893749,93.28125 L52.4893749,95 L49.9112499,95 Z M57.2668749,95 L57.2668749,93.28125 L59.8449999,93.28125 L59.8449999,95 L57.2668749,95 Z M11,100 L11,98.28125 L13.578125,98.28125 L13.578125,100 L11,100 Z M13.42,100 L13.42,98.28125 L15.998125,98.28125 L15.998125,100 L13.42,100 Z M15.84,100 L15.84,98.28125 L18.418125,98.28125 L18.418125,100 L15.84,100 Z M18.26,100 L18.26,98.28125 L20.838125,98.28125 L20.838125,100 L18.26,100 Z M20.68,100 L20.68,98.28125 L23.258125,98.28125 L23.258125,100 L20.68,100 Z M23.1,100 L23.1,98.28125 L25.678125,98.28125 L25.678125,100 L23.1,100 Z M30.455625,100 L30.455625,98.28125 L33.03375,98.28125 L33.03375,100 L30.455625,100 Z M32.875625,100 L32.875625,98.28125 L35.45375,98.28125 L35.45375,100 L32.875625,100 Z M35.2956249,100 L35.2956249,98.28125 L37.8737499,98.28125 L37.8737499,100 L35.2956249,100 Z M42.6512499,100 L42.6512499,98.28125 L45.2293749,98.28125 L45.2293749,100 L42.6512499,100 Z M45.0712499,100 L45.0712499,98.28125 L47.6493749,98.28125 L47.6493749,100 L45.0712499,100 Z M47.4912499,100 L47.4912499,98.28125 L50.0693749,98.28125 L50.0693749,100 L47.4912499,100 Z M49.9112499,100 L49.9112499,98.28125 L52.4893749,98.28125 L52.4893749,100 L49.9112499,100 Z M57.2668749,100 L57.2668749,98.28125 L59.8449999,98.28125 L59.8449999,100 L57.2668749,100 Z M59.6868749,100 L59.6868749,98.28125 L62.2649999,98.28125 L62.2649999,100 L59.6868749,100 Z M62.1068749,100 L62.1068749,98.28125 L64.6849999,98.28125 L64.6849999,100 L62.1068749,100 Z M11,105 L11,103.28125 L13.578125,103.28125 L13.578125,105 L11,105 Z M13.42,105 L13.42,103.28125 L15.998125,103.28125 L15.998125,105 L13.42,105 Z M15.84,105 L15.84,103.28125 L18.418125,103.28125 L18.418125,105 L15.84,105 Z M23.195625,105 L23.195625,103.28125 L25.77375,103.28125 L25.77375,105 L23.195625,105 Z M25.615625,105 L25.615625,103.28125 L28.19375,103.28125 L28.19375,105 L25.615625,105 Z M28.035625,105 L28.035625,103.28125 L30.61375,103.28125 L30.61375,105 L28.035625,105 Z M35.39125,105 L35.39125,103.28125 L37.969375,103.28125 L37.969375,105 L35.39125,105 Z M37.8112499,105 L37.8112499,103.28125 L40.3893749,103.28125 L40.3893749,105 L37.8112499,105 Z M40.2312499,105 L40.2312499,103.28125 L42.8093749,103.28125 L42.8093749,105 L40.2312499,105 Z M42.6512499,105 L42.6512499,103.28125 L45.2293749,103.28125 L45.2293749,105 L42.6512499,105 Z M50.0068749,105 L50.0068749,103.28125 L52.5849999,103.28125 L52.5849999,105 L50.0068749,105 Z M52.4268749,105 L52.4268749,103.28125 L55.0049999,103.28125 L55.0049999,105 L52.4268749,105 Z M54.8468749,105 L54.8468749,103.28125 L57.4249999,103.28125 L57.4249999,105 L54.8468749,105 Z M11,110 L11,108.28125 L13.578125,108.28125 L13.578125,110 L11,110 Z M13.42,110 L13.42,108.28125 L15.998125,108.28125 L15.998125,110 L13.42,110 Z M15.84,110 L15.84,108.28125 L18.418125,108.28125 L18.418125,110 L15.84,110 Z M23.195625,110 L23.195625,108.28125 L25.77375,108.28125 L25.77375,110 L23.195625,110 Z M25.615625,110 L25.615625,108.28125 L28.19375,108.28125 L28.19375,110 L25.615625,110 Z M28.035625,110 L28.035625,108.28125 L30.61375,108.28125 L30.61375,110 L28.035625,110 Z M30.455625,110 L30.455625,108.28125 L33.03375,108.28125 L33.03375,110 L30.455625,110 Z M32.875625,110 L32.875625,108.28125 L35.45375,108.28125 L35.45375,110 L32.875625,110 Z M35.2956249,110 L35.2956249,108.28125 L37.8737499,108.28125 L37.8737499,110 L35.2956249,110 Z M37.7156249,110 L37.7156249,108.28125 L40.2937499,108.28125 L40.2937499,110 L37.7156249,110 Z M40.1356249,110 L40.1356249,108.28125 L42.7137499,108.28125 L42.7137499,110 L40.1356249,110 Z M42.5556249,110 L42.5556249,108.28125 L45.1337499,108.28125 L45.1337499,110 L42.5556249,110 Z M44.9756249,110 L44.9756249,108.28125 L47.5537499,108.28125 L47.5537499,110 L44.9756249,110 Z M47.3956249,110 L47.3956249,108.28125 L49.9737499,108.28125 L49.9737499,110 L47.3956249,110 Z M49.8156249,110 L49.8156249,108.28125 L52.3937499,108.28125 L52.3937499,110 L49.8156249,110 Z M52.2356249,110 L52.2356249,108.28125 L54.8137499,108.28125 L54.8137499,110 L52.2356249,110 Z M54.6556249,110 L54.6556249,108.28125 L57.2337499,108.28125 L57.2337499,110 L54.6556249,110 Z M11,115 L11,113.28125 L13.578125,113.28125 L13.578125,115 L11,115 Z M13.42,115 L13.42,113.28125 L15.998125,113.28125 L15.998125,115 L13.42,115 Z M15.84,115 L15.84,113.28125 L18.418125,113.28125 L18.418125,115 L15.84,115 Z M18.26,115 L18.26,113.28125 L20.838125,113.28125 L20.838125,115 L18.26,115 Z M20.68,115 L20.68,113.28125 L23.258125,113.28125 L23.258125,115 L20.68,115 Z M28.035625,115 L28.035625,113.28125 L30.61375,113.28125 L30.61375,115 L28.035625,115 Z M30.455625,115 L30.455625,113.28125 L33.03375,113.28125 L33.03375,115 L30.455625,115 Z M37.8112499,115 L37.8112499,113.28125 L40.3893749,113.28125 L40.3893749,115 L37.8112499,115 Z M40.2312499,115 L40.2312499,113.28125 L42.8093749,113.28125 L42.8093749,115 L40.2312499,115 Z M42.6512499,115 L42.6512499,113.28125 L45.2293749,113.28125 L45.2293749,115 L42.6512499,115 Z M50.0068749,115 L50.0068749,113.28125 L52.5849999,113.28125 L52.5849999,115 L50.0068749,115 Z M52.4268749,115 L52.4268749,113.28125 L55.0049999,113.28125 L55.0049999,115 L52.4268749,115 Z M54.8468749,115 L54.8468749,113.28125 L57.4249999,113.28125 L57.4249999,115 L54.8468749,115 Z M57.2668749,115 L57.2668749,113.28125 L59.8449999,113.28125 L59.8449999,115 L57.2668749,115 Z" id="Mobile-Text" fill="#96B5B4" sketch:type="MSShapeGroup"></path>
            </g>
            <g id="Tablet" sketch:type="MSLayerGroup" transform="translate(600.000000, 177.000000)">
                <rect id="Rectangle-4" stroke="#2B303B" stroke-width="10" fill="#FFFFFF" sketch:type="MSShapeGroup" x="0" y="0" width="160" height="220" rx="12"></rect>
                <g id="Line-Graph" transform="translate(19.875776, 22.000000)" sketch:type="MSShapeGroup">
                    <path d="M27.0519005,71.5549018 L28.4052526,72.2353833 L29.4751714,71.1594476 L57.4659098,43.0112995 L55.0426388,43.4067537 L83.0333772,57.4808278 L84.3867293,58.1613092 L85.4566481,57.0853736 L113.447387,28.9372254 L110.47852,25.9516635 L82.487782,54.0998116 L84.911053,53.7043574 L56.9203146,39.6302833 L55.5669625,38.9498019 L54.4970436,40.0257375 L26.5063053,68.1738857 L28.9295763,67.7784315 L0.938837906,53.7043574 L0.938837967,57.7646818 L27.0519005,71.5549018 Z" id="Path-2" fill="#5B90BF"></path>
                    <ellipse id="Oval-1" stroke="#5B90BF" stroke-width="3" fill="#FFFFFF" cx="55.9814767" cy="42.2222222" rx="6.29791613" ry="6.33333333"></ellipse>
                    <ellipse id="Oval-3" stroke="#5B90BF" stroke-width="3" fill="#FFFFFF" cx="83.9722151" cy="56.2962963" rx="6.29791613" ry="6.33333333"></ellipse>
                    <ellipse id="Oval-4" stroke="#5B90BF" stroke-width="3" fill="#FFFFFF" cx="111.962953" cy="28.1481481" rx="6.29791613" ry="6.33333333"></ellipse>
                    <ellipse id="Oval-2" stroke="#5B90BF" stroke-width="3" fill="#FFFFFF" cx="27.9907384" cy="70.3703704" rx="6.29791613" ry="6.33333333"></ellipse>
                    <path d="M0,0 L0,95 L111.962953,95" id="Path-1" stroke="#DFE1E8" stroke-width="4"></path>
                </g>
                <path d="M20.6825655,128.625 L20.6825655,125.1875 L25.8388155,125.1875 L25.8388155,128.625 L20.6825655,128.625 Z M25.6825655,128.625 L25.6825655,125.1875 L30.8388155,125.1875 L30.8388155,128.625 L25.6825655,128.625 Z M30.6825655,128.625 L30.6825655,125.1875 L35.8388155,125.1875 L35.8388155,128.625 L30.6825655,128.625 Z M45.7138155,128.625 L45.7138155,125.1875 L50.8700655,125.1875 L50.8700655,128.625 L45.7138155,128.625 Z M50.7138155,128.625 L50.7138155,125.1875 L55.8700655,125.1875 L55.8700655,128.625 L50.7138155,128.625 Z M55.7138155,128.625 L55.7138155,125.1875 L60.8700655,125.1875 L60.8700655,128.625 L55.7138155,128.625 Z M60.7138155,128.625 L60.7138155,125.1875 L65.8700655,125.1875 L65.8700655,128.625 L60.7138155,128.625 Z M75.7450655,128.625 L75.7450655,125.1875 L80.9013155,125.1875 L80.9013155,128.625 L75.7450655,128.625 Z M80.7450655,128.625 L80.7450655,125.1875 L85.9013155,125.1875 L85.9013155,128.625 L80.7450655,128.625 Z M95.7763155,128.625 L95.7763155,125.1875 L100.932566,125.1875 L100.932566,128.625 L95.7763155,128.625 Z M100.776316,128.625 L100.776316,125.1875 L105.932566,125.1875 L105.932566,128.625 L100.776316,128.625 Z M105.776316,128.625 L105.776316,125.1875 L110.932566,125.1875 L110.932566,128.625 L105.776316,128.625 Z M110.776316,128.625 L110.776316,125.1875 L115.932566,125.1875 L115.932566,128.625 L110.776316,128.625 Z M20.6825655,136.625 L20.6825655,133.1875 L25.8388155,133.1875 L25.8388155,136.625 L20.6825655,136.625 Z M25.6825655,136.625 L25.6825655,133.1875 L30.8388155,133.1875 L30.8388155,136.625 L25.6825655,136.625 Z M30.6825655,136.625 L30.6825655,133.1875 L35.8388155,133.1875 L35.8388155,136.625 L30.6825655,136.625 Z M45.7138155,136.625 L45.7138155,133.1875 L50.8700655,133.1875 L50.8700655,136.625 L45.7138155,136.625 Z M50.7138155,136.625 L50.7138155,133.1875 L55.8700655,133.1875 L55.8700655,136.625 L50.7138155,136.625 Z M55.7138155,136.625 L55.7138155,133.1875 L60.8700655,133.1875 L60.8700655,136.625 L55.7138155,136.625 Z M70.7450655,136.625 L70.7450655,133.1875 L75.9013155,133.1875 L75.9013155,136.625 L70.7450655,136.625 Z M75.7450655,136.625 L75.7450655,133.1875 L80.9013155,133.1875 L80.9013155,136.625 L75.7450655,136.625 Z M80.7450655,136.625 L80.7450655,133.1875 L85.9013155,133.1875 L85.9013155,136.625 L80.7450655,136.625 Z M85.7450655,136.625 L85.7450655,133.1875 L90.9013155,133.1875 L90.9013155,136.625 L85.7450655,136.625 Z M100.776316,136.625 L100.776316,133.1875 L105.932566,133.1875 L105.932566,136.625 L100.776316,136.625 Z M115.807566,136.625 L115.807566,133.1875 L120.963816,133.1875 L120.963816,136.625 L115.807566,136.625 Z M120.807566,136.625 L120.807566,133.1875 L125.963816,133.1875 L125.963816,136.625 L120.807566,136.625 Z M125.807566,136.625 L125.807566,133.1875 L130.963816,133.1875 L130.963816,136.625 L125.807566,136.625 Z M130.807566,136.625 L130.807566,133.1875 L135.963816,133.1875 L135.963816,136.625 L130.807566,136.625 Z M20.6825655,144.625 L20.6825655,141.1875 L25.8388155,141.1875 L25.8388155,144.625 L20.6825655,144.625 Z M25.6825655,144.625 L25.6825655,141.1875 L30.8388155,141.1875 L30.8388155,144.625 L25.6825655,144.625 Z M30.6825655,144.625 L30.6825655,141.1875 L35.8388155,141.1875 L35.8388155,144.625 L30.6825655,144.625 Z M45.7138155,144.625 L45.7138155,141.1875 L50.8700655,141.1875 L50.8700655,144.625 L45.7138155,144.625 Z M60.7450655,144.625 L60.7450655,141.1875 L65.9013155,141.1875 L65.9013155,144.625 L60.7450655,144.625 Z M65.7450655,144.625 L65.7450655,141.1875 L70.9013155,141.1875 L70.9013155,144.625 L65.7450655,144.625 Z M70.7450655,144.625 L70.7450655,141.1875 L75.9013155,141.1875 L75.9013155,144.625 L70.7450655,144.625 Z M85.7763155,144.625 L85.7763155,141.1875 L90.9325655,141.1875 L90.9325655,144.625 L85.7763155,144.625 Z M90.7763155,144.625 L90.7763155,141.1875 L95.9325655,141.1875 L95.9325655,144.625 L90.7763155,144.625 Z M95.7763155,144.625 L95.7763155,141.1875 L100.932566,141.1875 L100.932566,144.625 L95.7763155,144.625 Z M110.807566,144.625 L110.807566,141.1875 L115.963816,141.1875 L115.963816,144.625 L110.807566,144.625 Z M115.807566,144.625 L115.807566,141.1875 L120.963816,141.1875 L120.963816,144.625 L115.807566,144.625 Z M120.807566,144.625 L120.807566,141.1875 L125.963816,141.1875 L125.963816,144.625 L120.807566,144.625 Z M20.6825655,152.625 L20.6825655,149.1875 L25.8388155,149.1875 L25.8388155,152.625 L20.6825655,152.625 Z M35.7138155,152.625 L35.7138155,149.1875 L40.8700655,149.1875 L40.8700655,152.625 L35.7138155,152.625 Z M40.7138155,152.625 L40.7138155,149.1875 L45.8700655,149.1875 L45.8700655,152.625 L40.7138155,152.625 Z M45.7138155,152.625 L45.7138155,149.1875 L50.8700655,149.1875 L50.8700655,152.625 L45.7138155,152.625 Z M50.7138155,152.625 L50.7138155,149.1875 L55.8700655,149.1875 L55.8700655,152.625 L50.7138155,152.625 Z M55.7138155,152.625 L55.7138155,149.1875 L60.8700655,149.1875 L60.8700655,152.625 L55.7138155,152.625 Z M60.7138155,152.625 L60.7138155,149.1875 L65.8700655,149.1875 L65.8700655,152.625 L60.7138155,152.625 Z M65.7138155,152.625 L65.7138155,149.1875 L70.8700655,149.1875 L70.8700655,152.625 L65.7138155,152.625 Z M70.7138155,152.625 L70.7138155,149.1875 L75.8700655,149.1875 L75.8700655,152.625 L70.7138155,152.625 Z M85.7450655,152.625 L85.7450655,149.1875 L90.9013155,149.1875 L90.9013155,152.625 L85.7450655,152.625 Z M90.7450655,152.625 L90.7450655,149.1875 L95.9013155,149.1875 L95.9013155,152.625 L90.7450655,152.625 Z M105.776316,152.625 L105.776316,149.1875 L110.932566,149.1875 L110.932566,152.625 L105.776316,152.625 Z M110.776316,152.625 L110.776316,149.1875 L115.932566,149.1875 L115.932566,152.625 L110.776316,152.625 Z M115.776316,152.625 L115.776316,149.1875 L120.932566,149.1875 L120.932566,152.625 L115.776316,152.625 Z M20.6825655,160.625 L20.6825655,157.1875 L25.8388155,157.1875 L25.8388155,160.625 L20.6825655,160.625 Z M25.6825655,160.625 L25.6825655,157.1875 L30.8388155,157.1875 L30.8388155,160.625 L25.6825655,160.625 Z M30.6825655,160.625 L30.6825655,157.1875 L35.8388155,157.1875 L35.8388155,160.625 L30.6825655,160.625 Z M35.6825655,160.625 L35.6825655,157.1875 L40.8388155,157.1875 L40.8388155,160.625 L35.6825655,160.625 Z M40.6825655,160.625 L40.6825655,157.1875 L45.8388155,157.1875 L45.8388155,160.625 L40.6825655,160.625 Z M55.7138155,160.625 L55.7138155,157.1875 L60.8700655,157.1875 L60.8700655,160.625 L55.7138155,160.625 Z M60.7138155,160.625 L60.7138155,157.1875 L65.8700655,157.1875 L65.8700655,160.625 L60.7138155,160.625 Z M65.7138155,160.625 L65.7138155,157.1875 L70.8700655,157.1875 L70.8700655,160.625 L65.7138155,160.625 Z M70.7138155,160.625 L70.7138155,157.1875 L75.8700655,157.1875 L75.8700655,160.625 L70.7138155,160.625 Z M75.7138155,160.625 L75.7138155,157.1875 L80.8700655,157.1875 L80.8700655,160.625 L75.7138155,160.625 Z M80.7138155,160.625 L80.7138155,157.1875 L85.8700655,157.1875 L85.8700655,160.625 L80.7138155,160.625 Z M95.7450655,160.625 L95.7450655,157.1875 L100.901316,157.1875 L100.901316,160.625 L95.7450655,160.625 Z M100.745066,160.625 L100.745066,157.1875 L105.901316,157.1875 L105.901316,160.625 L100.745066,160.625 Z M115.776316,160.625 L115.776316,157.1875 L120.932566,157.1875 L120.932566,160.625 L115.776316,160.625 Z M20.6825655,168.625 L20.6825655,165.1875 L25.8388155,165.1875 L25.8388155,168.625 L20.6825655,168.625 Z M25.6825655,168.625 L25.6825655,165.1875 L30.8388155,165.1875 L30.8388155,168.625 L25.6825655,168.625 Z M30.6825655,168.625 L30.6825655,165.1875 L35.8388155,165.1875 L35.8388155,168.625 L30.6825655,168.625 Z M35.6825655,168.625 L35.6825655,165.1875 L40.8388155,165.1875 L40.8388155,168.625 L35.6825655,168.625 Z M40.6825655,168.625 L40.6825655,165.1875 L45.8388155,165.1875 L45.8388155,168.625 L40.6825655,168.625 Z M45.6825655,168.625 L45.6825655,165.1875 L50.8388155,165.1875 L50.8388155,168.625 L45.6825655,168.625 Z M60.7138155,168.625 L60.7138155,165.1875 L65.8700655,165.1875 L65.8700655,168.625 L60.7138155,168.625 Z M65.7138155,168.625 L65.7138155,165.1875 L70.8700655,165.1875 L70.8700655,168.625 L65.7138155,168.625 Z M70.7138155,168.625 L70.7138155,165.1875 L75.8700655,165.1875 L75.8700655,168.625 L70.7138155,168.625 Z M85.7450655,168.625 L85.7450655,165.1875 L90.9013155,165.1875 L90.9013155,168.625 L85.7450655,168.625 Z M90.7450655,168.625 L90.7450655,165.1875 L95.9013155,165.1875 L95.9013155,168.625 L90.7450655,168.625 Z M95.7450655,168.625 L95.7450655,165.1875 L100.901316,165.1875 L100.901316,168.625 L95.7450655,168.625 Z M100.745066,168.625 L100.745066,165.1875 L105.901316,165.1875 L105.901316,168.625 L100.745066,168.625 Z M115.776316,168.625 L115.776316,165.1875 L120.932566,165.1875 L120.932566,168.625 L115.776316,168.625 Z M120.776316,168.625 L120.776316,165.1875 L125.932566,165.1875 L125.932566,168.625 L120.776316,168.625 Z M125.776316,168.625 L125.776316,165.1875 L130.932566,165.1875 L130.932566,168.625 L125.776316,168.625 Z M20.6825655,176.625 L20.6825655,173.1875 L25.8388155,173.1875 L25.8388155,176.625 L20.6825655,176.625 Z M25.6825655,176.625 L25.6825655,173.1875 L30.8388155,173.1875 L30.8388155,176.625 L25.6825655,176.625 Z M30.6825655,176.625 L30.6825655,173.1875 L35.8388155,173.1875 L35.8388155,176.625 L30.6825655,176.625 Z M45.7138155,176.625 L45.7138155,173.1875 L50.8700655,173.1875 L50.8700655,176.625 L45.7138155,176.625 Z M50.7138155,176.625 L50.7138155,173.1875 L55.8700655,173.1875 L55.8700655,176.625 L50.7138155,176.625 Z M55.7138155,176.625 L55.7138155,173.1875 L60.8700655,173.1875 L60.8700655,176.625 L55.7138155,176.625 Z M70.7450655,176.625 L70.7450655,173.1875 L75.9013155,173.1875 L75.9013155,176.625 L70.7450655,176.625 Z M75.7450655,176.625 L75.7450655,173.1875 L80.9013155,173.1875 L80.9013155,176.625 L75.7450655,176.625 Z M80.7450655,176.625 L80.7450655,173.1875 L85.9013155,173.1875 L85.9013155,176.625 L80.7450655,176.625 Z M85.7450655,176.625 L85.7450655,173.1875 L90.9013155,173.1875 L90.9013155,176.625 L85.7450655,176.625 Z M100.776316,176.625 L100.776316,173.1875 L105.932566,173.1875 L105.932566,176.625 L100.776316,176.625 Z M105.776316,176.625 L105.776316,173.1875 L110.932566,173.1875 L110.932566,176.625 L105.776316,176.625 Z M110.776316,176.625 L110.776316,173.1875 L115.932566,173.1875 L115.932566,176.625 L110.776316,176.625 Z M20.6825655,184.625 L20.6825655,181.1875 L25.8388155,181.1875 L25.8388155,184.625 L20.6825655,184.625 Z M25.6825655,184.625 L25.6825655,181.1875 L30.8388155,181.1875 L30.8388155,184.625 L25.6825655,184.625 Z M30.6825655,184.625 L30.6825655,181.1875 L35.8388155,181.1875 L35.8388155,184.625 L30.6825655,184.625 Z M45.7138155,184.625 L45.7138155,181.1875 L50.8700655,181.1875 L50.8700655,184.625 L45.7138155,184.625 Z M50.7138155,184.625 L50.7138155,181.1875 L55.8700655,181.1875 L55.8700655,184.625 L50.7138155,184.625 Z M55.7138155,184.625 L55.7138155,181.1875 L60.8700655,181.1875 L60.8700655,184.625 L55.7138155,184.625 Z M60.7138155,184.625 L60.7138155,181.1875 L65.8700655,181.1875 L65.8700655,184.625 L60.7138155,184.625 Z M65.7138155,184.625 L65.7138155,181.1875 L70.8700655,181.1875 L70.8700655,184.625 L65.7138155,184.625 Z M70.7138155,184.625 L70.7138155,181.1875 L75.8700655,181.1875 L75.8700655,184.625 L70.7138155,184.625 Z M75.7138155,184.625 L75.7138155,181.1875 L80.8700655,181.1875 L80.8700655,184.625 L75.7138155,184.625 Z M80.7138155,184.625 L80.7138155,181.1875 L85.8700655,181.1875 L85.8700655,184.625 L80.7138155,184.625 Z M85.7138155,184.625 L85.7138155,181.1875 L90.8700655,181.1875 L90.8700655,184.625 L85.7138155,184.625 Z M90.7138155,184.625 L90.7138155,181.1875 L95.8700655,181.1875 L95.8700655,184.625 L90.7138155,184.625 Z M95.7138155,184.625 L95.7138155,181.1875 L100.870066,181.1875 L100.870066,184.625 L95.7138155,184.625 Z M100.713816,184.625 L100.713816,181.1875 L105.870066,181.1875 L105.870066,184.625 L100.713816,184.625 Z M105.713816,184.625 L105.713816,181.1875 L110.870066,181.1875 L110.870066,184.625 L105.713816,184.625 Z M110.713816,184.625 L110.713816,181.1875 L115.870066,181.1875 L115.870066,184.625 L110.713816,184.625 Z M20.6825655,192.625 L20.6825655,189.1875 L25.8388155,189.1875 L25.8388155,192.625 L20.6825655,192.625 Z M25.6825655,192.625 L25.6825655,189.1875 L30.8388155,189.1875 L30.8388155,192.625 L25.6825655,192.625 Z M30.6825655,192.625 L30.6825655,189.1875 L35.8388155,189.1875 L35.8388155,192.625 L30.6825655,192.625 Z M35.6825655,192.625 L35.6825655,189.1875 L40.8388155,189.1875 L40.8388155,192.625 L35.6825655,192.625 Z M40.6825655,192.625 L40.6825655,189.1875 L45.8388155,189.1875 L45.8388155,192.625 L40.6825655,192.625 Z M55.7138155,192.625 L55.7138155,189.1875 L60.8700655,189.1875 L60.8700655,192.625 L55.7138155,192.625 Z M60.7138155,192.625 L60.7138155,189.1875 L65.8700655,189.1875 L65.8700655,192.625 L60.7138155,192.625 Z M75.7450655,192.625 L75.7450655,189.1875 L80.9013155,189.1875 L80.9013155,192.625 L75.7450655,192.625 Z M80.7450655,192.625 L80.7450655,189.1875 L85.9013155,189.1875 L85.9013155,192.625 L80.7450655,192.625 Z M85.7450655,192.625 L85.7450655,189.1875 L90.9013155,189.1875 L90.9013155,192.625 L85.7450655,192.625 Z M100.776316,192.625 L100.776316,189.1875 L105.932566,189.1875 L105.932566,192.625 L100.776316,192.625 Z M105.776316,192.625 L105.776316,189.1875 L110.932566,189.1875 L110.932566,192.625 L105.776316,192.625 Z M110.776316,192.625 L110.776316,189.1875 L115.932566,189.1875 L115.932566,192.625 L110.776316,192.625 Z M115.776316,192.625 L115.776316,189.1875 L120.932566,189.1875 L120.932566,192.625 L115.776316,192.625 Z M20.6825655,200.625 L20.6825655,197.1875 L25.8388155,197.1875 L25.8388155,200.625 L20.6825655,200.625 Z M25.6825655,200.625 L25.6825655,197.1875 L30.8388155,197.1875 L30.8388155,200.625 L25.6825655,200.625 Z M30.6825655,200.625 L30.6825655,197.1875 L35.8388155,197.1875 L35.8388155,200.625 L30.6825655,200.625 Z M45.7138155,200.625 L45.7138155,197.1875 L50.8700655,197.1875 L50.8700655,200.625 L45.7138155,200.625 Z M50.7138155,200.625 L50.7138155,197.1875 L55.8700655,197.1875 L55.8700655,200.625 L50.7138155,200.625 Z M55.7138155,200.625 L55.7138155,197.1875 L60.8700655,197.1875 L60.8700655,200.625 L55.7138155,200.625 Z M60.7138155,200.625 L60.7138155,197.1875 L65.8700655,197.1875 L65.8700655,200.625 L60.7138155,200.625 Z M65.7138155,200.625 L65.7138155,197.1875 L70.8700655,197.1875 L70.8700655,200.625 L65.7138155,200.625 Z M80.7450655,200.625 L80.7450655,197.1875 L85.9013155,197.1875 L85.9013155,200.625 L80.7450655,200.625 Z M85.7450655,200.625 L85.7450655,197.1875 L90.9013155,197.1875 L90.9013155,200.625 L85.7450655,200.625 Z M90.7450655,200.625 L90.7450655,197.1875 L95.9013155,197.1875 L95.9013155,200.625 L90.7450655,200.625 Z M95.7450655,200.625 L95.7450655,197.1875 L100.901316,197.1875 L100.901316,200.625 L95.7450655,200.625 Z M100.745066,200.625 L100.745066,197.1875 L105.901316,197.1875 L105.901316,200.625 L100.745066,200.625 Z M105.745066,200.625 L105.745066,197.1875 L110.901316,197.1875 L110.901316,200.625 L105.745066,200.625 Z M110.745066,200.625 L110.745066,197.1875 L115.901316,197.1875 L115.901316,200.625 L110.745066,200.625 Z M115.745066,200.625 L115.745066,197.1875 L120.901316,197.1875 L120.901316,200.625 L115.745066,200.625 Z" id="Browser-text-2" fill="#96B5B4" sketch:type="MSShapeGroup"></path>
            </g>
        </g>
    </g>
</svg>