<?xml version="1.0" encoding="utf-8"?>
<!DOCTYPE svg PUBLIC "-//W3C//DTD SVG 1.1//EN" "http://www.w3.org/Graphics/SVG/1.1/DTD/svg11.dtd">
<svg version="1.1" id="Layer_1" xmlns="http://www.w3.org/2000/svg" xmlns:xlink="http://www.w3.org/1999/xlink" x="0px" y="0px"
	 width="320px" height="320px" viewBox="0 0 320 320" enable-background="new 0 0 320 320" xml:space="preserve">
<g>
	<g>
		<path fill="#FF6384" d="M106.22,278.816c0.352,0,0.656,0.136,0.912,0.408l2.544,2.76c-1.408,1.744-3.14,3.081-5.196,4.008
			c-2.056,0.928-4.524,1.392-7.404,1.392c-2.576,0-4.892-0.439-6.948-1.32c-2.056-0.88-3.813-2.104-5.268-3.672
			c-1.456-1.568-2.572-3.44-3.348-5.616c-0.776-2.176-1.164-4.552-1.164-7.128c0-2.608,0.432-4.996,1.296-7.164
			c0.864-2.168,2.08-4.036,3.648-5.604c1.568-1.568,3.444-2.788,5.628-3.66s4.596-1.308,7.236-1.308
			c2.576,0,4.828,0.412,6.756,1.236c1.928,0.824,3.58,1.917,4.956,3.276l-2.16,3c-0.128,0.192-0.292,0.36-0.492,0.504
			c-0.2,0.144-0.476,0.216-0.828,0.216c-0.368,0-0.744-0.144-1.128-0.432c-0.384-0.288-0.872-0.6-1.464-0.936
			c-0.592-0.336-1.34-0.648-2.244-0.936s-2.052-0.432-3.444-0.432c-1.632,0-3.132,0.284-4.5,0.852
			c-1.368,0.568-2.544,1.38-3.528,2.436c-0.984,1.056-1.752,2.34-2.304,3.852c-0.552,1.512-0.828,3.212-0.828,5.1
			c0,1.952,0.276,3.688,0.828,5.208c0.552,1.521,1.3,2.8,2.244,3.84c0.944,1.041,2.056,1.836,3.336,2.388
			c1.28,0.552,2.656,0.828,4.128,0.828c0.88,0,1.676-0.048,2.388-0.144c0.711-0.096,1.368-0.248,1.968-0.456
			c0.6-0.208,1.168-0.476,1.704-0.804c0.536-0.328,1.068-0.732,1.596-1.212c0.16-0.144,0.328-0.26,0.504-0.348
			C105.82,278.86,106.012,278.816,106.22,278.816z"/>
		<path fill="#FF6384" d="M114.211,287v-35.664h5.928v13.704c0.96-0.912,2.016-1.648,3.168-2.208c1.152-0.56,2.504-0.84,4.056-0.84
			c1.344,0,2.536,0.228,3.576,0.684c1.04,0.456,1.908,1.096,2.604,1.92s1.224,1.808,1.584,2.952c0.36,1.144,0.54,2.404,0.54,3.78
			V287h-5.928v-15.672c0-1.504-0.348-2.668-1.044-3.492c-0.696-0.824-1.74-1.236-3.132-1.236c-1.024,0-1.984,0.232-2.88,0.696
			c-0.896,0.464-1.744,1.096-2.544,1.896V287H114.211z"/>
		<path fill="#FF6384" d="M160.795,287h-2.664c-0.56,0-1-0.084-1.32-0.252c-0.32-0.168-0.56-0.508-0.72-1.02l-0.528-1.752
			c-0.624,0.56-1.236,1.052-1.836,1.476s-1.22,0.78-1.86,1.068c-0.64,0.288-1.32,0.504-2.04,0.648
			c-0.72,0.144-1.521,0.216-2.4,0.216c-1.041,0-2-0.141-2.88-0.421c-0.88-0.281-1.636-0.702-2.268-1.264
			c-0.632-0.562-1.125-1.26-1.476-2.095c-0.352-0.834-0.528-1.806-0.528-2.914c0-0.931,0.244-1.85,0.732-2.757
			c0.488-0.907,1.3-1.726,2.436-2.456s2.648-1.336,4.536-1.818c1.888-0.481,4.232-0.723,7.032-0.723v-1.451
			c0-1.661-0.348-2.89-1.044-3.688c-0.696-0.798-1.708-1.197-3.036-1.197c-0.96,0-1.76,0.112-2.4,0.336
			c-0.64,0.224-1.196,0.476-1.668,0.756c-0.472,0.28-0.909,0.532-1.308,0.756c-0.4,0.224-0.84,0.336-1.32,0.336
			c-0.4,0-0.744-0.104-1.032-0.312s-0.52-0.464-0.696-0.768l-1.08-1.896c2.832-2.592,6.248-3.888,10.248-3.888
			c1.44,0,2.724,0.236,3.852,0.708c1.128,0.472,2.084,1.128,2.868,1.968c0.784,0.84,1.38,1.844,1.788,3.012
			c0.408,1.168,0.612,2.448,0.612,3.84V287z M149.275,283.304c0.608,0,1.168-0.055,1.68-0.166c0.512-0.11,0.996-0.276,1.452-0.496
			c0.456-0.221,0.896-0.492,1.32-0.815c0.424-0.323,0.852-0.705,1.284-1.146v-4.122c-1.728,0-3.172,0.109-4.332,0.326
			c-1.16,0.217-2.092,0.496-2.796,0.834c-0.704,0.339-1.204,0.733-1.5,1.185s-0.444,0.942-0.444,1.474
			c0,1.048,0.308,1.797,0.924,2.248C147.479,283.079,148.283,283.304,149.275,283.304z"/>
		<path fill="#FF6384" d="M166.627,287v-24.624h3.48c0.608,0,1.032,0.112,1.272,0.336c0.24,0.224,0.4,0.608,0.48,1.152l0.36,2.976
			c0.88-1.52,1.912-2.72,3.096-3.6s2.512-1.32,3.984-1.32c1.216,0,2.224,0.28,3.024,0.84l-0.768,4.44
			c-0.048,0.288-0.152,0.492-0.312,0.612c-0.16,0.12-0.376,0.18-0.648,0.18c-0.24,0-0.568-0.056-0.984-0.168
			s-0.968-0.168-1.656-0.168c-1.232,0-2.289,0.34-3.168,1.02c-0.88,0.681-1.624,1.676-2.232,2.988V287H166.627z"/>
		<path fill="#FF6384" d="M194.322,287.384c-2.128,0-3.768-0.604-4.92-1.812c-1.152-1.208-1.728-2.875-1.728-5.004v-13.752h-2.496
			c-0.32,0-0.596-0.104-0.828-0.312c-0.232-0.208-0.348-0.52-0.348-0.936v-2.352l3.96-0.648l1.248-6.72
			c0.063-0.32,0.212-0.568,0.444-0.744c0.232-0.176,0.524-0.264,0.876-0.264h3.072v7.752h6.48v4.224h-6.48v13.344
			c0,0.768,0.192,1.368,0.576,1.8c0.384,0.432,0.896,0.648,1.536,0.648c0.368,0,0.676-0.044,0.924-0.132s0.464-0.18,0.648-0.276
			c0.184-0.096,0.348-0.188,0.492-0.276c0.144-0.087,0.288-0.132,0.432-0.132c0.176,0,0.32,0.044,0.432,0.132
			c0.112,0.088,0.231,0.22,0.36,0.396l1.776,2.88c-0.864,0.72-1.856,1.264-2.976,1.632S195.522,287.384,194.322,287.384z"/>
		<path fill="#FF6384" d="M203.395,283.736c0-0.496,0.092-0.968,0.276-1.416c0.184-0.448,0.44-0.832,0.768-1.152
			c0.328-0.32,0.716-0.576,1.164-0.768c0.448-0.192,0.928-0.288,1.44-0.288c0.496,0,0.968,0.096,1.416,0.288
			c0.448,0.192,0.832,0.448,1.152,0.768c0.32,0.32,0.576,0.704,0.768,1.152c0.192,0.448,0.288,0.92,0.288,1.416
			c0,0.512-0.096,0.988-0.288,1.428c-0.192,0.44-0.448,0.82-0.768,1.14c-0.32,0.32-0.704,0.572-1.152,0.756
			c-0.448,0.184-0.92,0.276-1.416,0.276c-0.512,0-0.992-0.092-1.44-0.276c-0.448-0.184-0.836-0.436-1.164-0.756
			c-0.328-0.32-0.584-0.7-0.768-1.14C203.486,284.724,203.395,284.248,203.395,283.736z"/>
		<path fill="#FF6384" d="M221.922,262.376v25.464c0,1.072-0.14,2.08-0.42,3.024c-0.28,0.944-0.729,1.772-1.344,2.484
			c-0.616,0.711-1.424,1.272-2.424,1.68c-1,0.408-2.22,0.612-3.66,0.612c-0.56,0-1.08-0.036-1.56-0.108
			c-0.48-0.072-0.968-0.188-1.464-0.348l0.192-3.192c0.048-0.32,0.176-0.524,0.384-0.612s0.608-0.132,1.2-0.132
			c0.592,0,1.092-0.06,1.5-0.18c0.408-0.12,0.736-0.312,0.984-0.576c0.248-0.264,0.424-0.612,0.528-1.044
			c0.104-0.432,0.156-0.968,0.156-1.608v-25.464H221.922z M222.81,255.2c0,0.512-0.104,0.992-0.312,1.44
			c-0.208,0.448-0.484,0.84-0.828,1.176c-0.344,0.336-0.748,0.604-1.212,0.804c-0.464,0.2-0.96,0.3-1.488,0.3
			c-0.512,0-0.996-0.1-1.452-0.3s-0.852-0.468-1.188-0.804c-0.336-0.336-0.604-0.728-0.804-1.176c-0.2-0.448-0.3-0.928-0.3-1.44
			c0-0.528,0.1-1.024,0.3-1.488c0.2-0.464,0.468-0.864,0.804-1.2c0.336-0.336,0.732-0.604,1.188-0.804
			c0.456-0.2,0.939-0.3,1.452-0.3c0.528,0,1.024,0.1,1.488,0.3c0.464,0.2,0.868,0.468,1.212,0.804c0.344,0.336,0.62,0.736,0.828,1.2
			C222.706,254.176,222.81,254.672,222.81,255.2z"/>
		<path fill="#FF6384" d="M243.138,267.176c-0.16,0.256-0.328,0.437-0.504,0.54c-0.176,0.104-0.4,0.156-0.672,0.156
			c-0.288,0-0.596-0.08-0.924-0.24c-0.328-0.16-0.708-0.339-1.14-0.54c-0.432-0.2-0.924-0.38-1.476-0.54
			c-0.552-0.16-1.204-0.24-1.956-0.24c-1.168,0-2.088,0.248-2.76,0.744s-1.008,1.144-1.008,1.944c0,0.528,0.171,0.972,0.516,1.332
			s0.8,0.676,1.368,0.948c0.568,0.272,1.212,0.516,1.932,0.732c0.72,0.216,1.456,0.452,2.208,0.708
			c0.752,0.256,1.488,0.548,2.208,0.876c0.72,0.328,1.364,0.744,1.932,1.248c0.568,0.504,1.024,1.108,1.368,1.812
			c0.344,0.705,0.516,1.552,0.516,2.544c0,1.184-0.216,2.276-0.648,3.276c-0.432,1-1.064,1.864-1.896,2.592
			c-0.832,0.729-1.86,1.296-3.084,1.704c-1.224,0.408-2.628,0.612-4.212,0.612c-0.848,0-1.676-0.076-2.484-0.228
			c-0.808-0.152-1.584-0.363-2.328-0.636c-0.744-0.272-1.432-0.592-2.064-0.96c-0.632-0.368-1.188-0.768-1.668-1.2l1.368-2.256
			c0.176-0.272,0.384-0.48,0.624-0.624s0.544-0.216,0.912-0.216c0.368,0,0.716,0.104,1.044,0.312
			c0.328,0.208,0.708,0.432,1.14,0.672c0.432,0.24,0.939,0.464,1.524,0.672c0.584,0.208,1.324,0.312,2.22,0.312
			c0.704,0,1.308-0.084,1.812-0.252s0.92-0.388,1.248-0.66c0.328-0.271,0.568-0.588,0.72-0.948c0.152-0.36,0.228-0.732,0.228-1.116
			c0-0.576-0.172-1.048-0.516-1.416c-0.344-0.368-0.8-0.688-1.368-0.96c-0.568-0.272-1.216-0.516-1.944-0.732
			s-1.472-0.452-2.232-0.708c-0.76-0.256-1.504-0.556-2.232-0.9c-0.729-0.344-1.376-0.78-1.944-1.308s-1.024-1.176-1.368-1.944
			c-0.344-0.768-0.516-1.696-0.516-2.784c0-1.008,0.2-1.968,0.6-2.88c0.399-0.912,0.988-1.708,1.764-2.388
			c0.776-0.68,1.744-1.224,2.904-1.632c1.16-0.408,2.5-0.612,4.02-0.612c1.696,0,3.24,0.28,4.632,0.84s2.552,1.296,3.48,2.208
			L243.138,267.176z"/>
	</g>
</g>
<path fill="#36A2EB" d="M242.733,132.899c-27.961,0.548-22.137,18.248-41.842,22.725c-20.018,4.547-23.178-48.888-43.19-48.888
	c-20.015,0-24.449,51.907-49.51,87.542l-0.714,1.009l53.731,31.017l81.525-47.063V132.899z"/>
<path fill="#FFCE56" d="M242.733,131.288c-9.361-12.013-15.709-25.823-29.368-25.823c-24.172,0-17.811,39.432-44.525,39.432
	c-26.717,0-29.525-42.414-59.791-2.543c-9.644,12.704-17.407,26.868-23.503,40.272l75.661,43.679l81.525-47.063V131.288z"/>
<path opacity="0.8" fill="#FE6184" d="M79.681,147.622c9.172-25.4,13.131-45.973,30.642-45.973
	c26.713,0,33.074,75.048,55.974,67.413c22.897-7.631,20.353-48.335,55.974-48.335c6.78,0,13.703,4.154,20.464,10.873v47.641
	l-81.525,47.063l-81.527-47.063V147.622z"/>
<path fill="#E7E9ED" d="M161.144,232.204l-86.615-49.999v-100l86.615-50l86.615,50v100L161.144,232.204z M84.706,176.33
	l76.438,44.126l76.439-44.126V88.079l-76.439-44.125L84.706,88.079V176.33z"/>
</svg>
